<?xml version="1.0" encoding="UTF-8"?>
<svg id="uuid-ac190a06-1bff-49a4-ad90-1c9f52213fbf" data-name="Layer 2" xmlns="http://www.w3.org/2000/svg" width="28" height="28" viewBox="0 0 28 28">
  <g id="uuid-b5796243-7bf4-41b3-95ff-f3042a9add95" data-name="Capa 1">
    <g>
      <rect width="28" height="28" style="fill: #0ba659;"/>
      <path d="M14.6,21.5c0,0-.1,0-.2,0,0,.1-.2,.2-.4,.2s-.3,0-.4-.2c0,0-.1,0-.2,0-.2,0-.4-.2-.4-.4s0-.2,0-.2c0,0,.2,0,.3,0h1.2c.1,0,.2,0,.3,0,0,0,0,.2,0,.2,0,.2-.2,.4-.4,.4m-1.5-10.2v2.4h1.7v-2.4h-1.7Zm-1.3,6c.4,.3,1,.5,1.7,.6v1.9h0c-.3,0-.5,.2-.5,.5,0,.1,0,.2,.1,.3,0,0,.2,.1,.3,.1h.9c.3,0,.5-.2,.5-.5s-.2-.5-.5-.5v-1.9c.7,0,1.3-.2,1.7-.6,.2-.2,.2-.5,0-.7-.2-.2-.5-.2-.7,0-.2,.1-.4,.2-.7,.3v-2.6h-1.7v2.6c-.3,0-.5-.1-.7-.3-.2-.2-.5-.2-.7,0-.2,.2-.2,.5,0,.7Zm3-9.3h-1.7v2.7h1.7v-2.7Zm0-.4h-1.7l.9-1.2,.9,1.2Z" style="fill: #fff; fill-rule: evenodd;"/>
    </g>
  </g>
</svg>