<?xml version="1.0" encoding="UTF-8"?>
<svg id="uuid-42607910-928a-41d4-a869-64540a9c77fa" data-name="Layer 2" xmlns="http://www.w3.org/2000/svg" width="27.8" height="31.6" viewBox="0 0 27.8 31.6">
  <g id="uuid-b0088b95-1ee0-42cb-97c3-6d2647530d6d" data-name="Capa 1">
    <g>
      <path d="M7.4,0h.6c.4,0,.9,.1,1.3,.3,.8,.4,1.5,1,1.8,1.8,.5,1.1,.4,2.6,.4,3.8h-1.9c0-1.2,.2-2.6-.5-3.4-1.3-1.4-3.4-.5-3.4,1.4v7.2h7.8V3.6c0-1,.6-2,1.1-2.5,.7-.7,1.6-1.1,2.5-1.1h.5c.9,0,1.8,.4,2.5,1.1,1.4,1.4,1.1,2.9,1.1,4.8h-1.9v-1.9c0-1.3-1-2.2-2-2.1-1.2,0-1.9,.9-1.9,2.2v12.3c0,.2,.3,.3,.5,.4,1.7,1,1.7,1.1,3.5,0,2.9-1.7,4.4,.8,5.6,.8s1.6-.8,2-.9c0,.2,.3,.6,.4,.8,.1,.2,.4,.6,.4,.8-1.5,.8-2.6,1.9-4.9,.5-1.1-.6-1-.7-1.9-.7s-1.5,.9-2.5,1.2c-2.9,.9-3.5-2.2-5.7-.8-.3,.2-.5,.3-.7,.4-.9,.5-1.8,.7-2.9,.4-1.4-.4-1.5-1.2-2.8-1.2s-1.6,1.1-3.1,1.3c-1.1,.1-1.7-.2-2.5-.7-.2-.1-.5-.3-.7-.4,0-.2,.1-.3,.2-.5l.7-1.2c.2,0,.3,.2,.5,.3,1.5,.9,1.3,.6,2.4,.4V6.8c0-1.6-.2-3.5,.5-4.8C4.8,.9,6.1,0,7.4,0m-1.7,16.4v-3.3h7.8v3c0,.3-.3,.1-.8,.4-.3,.1-.5,.2-.8,.4-1.7,1-1.7,.9-3.3,0-.6-.4-2-.9-2.8-.5Z" style="fill: #0ba059; fill-rule: evenodd;"/>
      <path d="M2.8,23.8c-.6,0-1.3-.5-1.9-.9-.2,.3-.3,.5-.5,.8-.1,.2-.4,.6-.5,.8,.3,0,1.2,.8,2,1,1.1,.3,1.8,0,2.7-.4,1.8-.9,1.6-1.2,3.6,0,2.8,1.6,4.4-.8,5.3-.8,1.4,0,1.5,.7,2.8,1.2,2.5,.8,3.1-1.2,4.9-1.2s2.7,2.3,5.1,.9c.2-.1,.4-.2,.6-.4,.2-.1,.4-.2,.7-.4,0-.2-.3-.6-.4-.8-.1-.2-.4-.5-.4-.8-.6,0-1.1,.9-2.1,.9s-2.6-2.5-5.5-.8c-1.7,1-1.7,1.1-3.5,0-2-1.2-3.1-.5-4.6,.4-2.3,1.3-3.1-2.5-6.6-.5-.6,.3-1.2,.8-1.8,.8" style="fill: #0ba059; fill-rule: evenodd;"/>
      <path d="M.9,28.9c-.2,.2-.3,.5-.5,.8-.1,.2-.4,.6-.5,.8,1.2,.6,1.4,1.1,3,1.1s2.5-1.4,3.5-1.4,1.8,1.2,3.3,1.4h.6c.5,0,1.1-.2,1.7-.6,1.7-.9,1.5-1.1,3.4,0,.6,.4,1.2,.6,1.7,.6h.5c1.5-.1,2.5-1.4,3.4-1.4s1.3,.5,1.7,.8c.6,.3,1.2,.6,1.8,.6h.5c.5,0,.9-.2,1.4-.4,.4-.2,.8-.5,1.2-.7,0-.3-.3-.6-.5-.8-.2-.3-.3-.5-.5-.8-1.4,.8-1.7,1.4-3.3,.4-.2-.1-.4-.2-.6-.4-.7-.4-1.2-.4-2-.4-1.5,0-2.4,1.3-3.4,1.3-1.1,0-2-1.3-3.4-1.3s-1.7,.3-3,1c-.3,.2-.5,.3-.9,.3-1.1,0-2-1.3-3.4-1.3s-1.8,.4-3.2,1.1c-1.3,.7-2.1-.5-2.7-.6" style="fill: #0ba059; fill-rule: evenodd;"/>
    </g>
  </g>
</svg>