<?xml version="1.0" encoding="UTF-8"?>
<svg id="uuid-89b00582-2e59-4ba9-8f8e-d7e87e7e21e1" data-name="Layer 2" xmlns="http://www.w3.org/2000/svg" width="29.4" height="26" viewBox="0 0 29.4 26">
  <g id="uuid-d4568336-8a2c-4a4f-bdb1-71c3df2325d0" data-name="Capa 1">
    <g>
      <path d="M13.4,8.6c0-1.2,0-2.4,0-3.5,0-.2,0-.4,0-.5,.2-.2,.5-.5,.7-.5,.2,0,.5,.3,.6,.6,0,.4,0,.9,0,1.3,2.2,.1,2.6,.3,2.7,2.7h1.9v-1.3c-.5,0-1-.1-.9-.7,0-.3,.5-.5,.7-.8h.2v-1.1c-.7,0-1.5,0-2.2,0-.9,0-1.1-.2-1-1.1C16.3,1.6,18.2,0,20.2,0c2.1,0,3.8,1.8,3.9,3.8,0,.6-.2,.8-.8,.9-.4,0-.8,0-1.2,0-.4,0-.8,0-1.2,0v1.3c.4,0,.9,.1,.9,.7,0,.6-.5,.7-1,.7v1.3h2.6c-.3-2,.6-2.9,2.7-2.6,0-.3,0-.5,0-.8,0-.9,.2-1.3,.7-1.2,.5,0,.6,.3,.6,1.3,0,1.1,0,2.1,0,3.2,0,0,0,0,0,.2,.2,0,.4,0,.6,0,.7,.1,1.3,.7,1.3,1.4,0,.4,0,.9,0,1.2,0,.2-.4,.6-.6,.6-.4,0-.6-.2-.7-.6,0,0,0,0,0,0q0-1.3-1.4-1.3c-8.1,0-16.3,0-24.4,0h-.9c0,.3,0,.5,0,.7,0,2.7,0,5.5,0,8.2,0,.2,0,.5,0,.6-.1,.2-.4,.4-.6,.4-.2,0-.5-.2-.6-.4-.1-.1,0-.4,0-.6,0-4.1,0-8.1,0-12.2,0-1.5,.6-2,2.1-2,1.8,0,3.5,0,5.3,0,1.1,0,2,.4,2.7,1.2,.6,.8,1.3,1.4,1.8,2.2,.4,.5,.8,.6,1.5,.5ZM22.5,3.3c-.3-1.3-1.4-2-2.6-2-1.1,0-2.1,.9-2.3,2h4.9Zm-14.4,5.3c0-.6,0-1.1,0-1.6q0-1.2-1.2-1.1s0,0,0,0v2.6h1.3ZM2.7,6c-.3,0-.6,0-.9,0-.2,0-.4,.2-.4,.3,0,.8,0,1.5,0,2.3h1.3v-2.6Zm2.6,2.6v-2.6h-1.2v2.6h1.2Zm20.7-1.2c-1.3-.2-1.4,0-1.2,1.2h1.2v-1.2Zm-11.3,1.2h1.3c.2-1.3,0-1.5-1.3-1.2v1.2Zm-5.3,0h1.2l-1.2-1.4v1.4Z" style="fill: #0ba659;"/>
      <path d="M14.7,26c-4.2,0-8.4,0-12.5,0-1.7,0-2.6-1.2-2-2.8,0-.2,.4-.4,.6-.4,.2,0,.5,.3,.6,.5,0,.1,0,.4,0,.5q0,.9,.9,.9c8.3,0,16.6,0,24.8,0q.9,0,.9-.9c0-3.3,0-6.6,0-9.9,0-.2,0-.5,0-.7,.1-.2,.4-.4,.6-.4,.2,0,.4,.2,.6,.4,0,.2,0,.4,0,.6,0,3.4,0,6.8,0,10.2,0,1.5-.6,2-2,2-4.2,0-8.4,0-12.6,0Z" style="fill: #0ba659;"/>
      <path d="M4.8,18c0-1,0-1.9,0-2.9,0-1.7,1.3-3.1,3-3.1,1.7,0,3,1.4,3,3.1,0,.8,0,1.7,0,2.5,0,.2,.2,.4,.3,.5,.8,.4,1.1,1.1,.9,1.9-.2,.8-.8,1.3-1.7,1.3-1.6,0-3.2,0-4.9,0-1.1,0-1.8-.4-2-1.3-.2-.9,.2-1.5,1.3-2Zm4.6,0c0-1.1,0-2.2,0-3.3,0-.8-.8-1.3-1.6-1.4-.8,0-1.6,.5-1.7,1.3,0,1.1,0,2.2,0,3.3h3.2Zm-1.6,2c.8,0,1.6,0,2.4,0,.2,0,.4-.2,.5-.3-.2-.1-.4-.3-.5-.3-1.6,0-3.3,0-4.9,0-.2,0-.3,.2-.5,.3,.2,.1,.3,.3,.5,.3,.8,0,1.7,0,2.5,0Z" style="fill: #0ba659;"/>
      <path d="M18.7,18c0-1,0-1.9,0-2.9,0-1.7,1.3-3.1,3-3.1,1.7,0,3,1.4,3,3.1,0,.8,0,1.7,0,2.5,0,.2,.2,.4,.3,.5,.8,.4,1.1,1.1,.9,1.9-.2,.8-.8,1.3-1.7,1.3-1.6,0-3.2,0-4.9,0-1.1,0-1.8-.4-2-1.3-.2-.9,.2-1.5,1.3-2Zm1.4,0h3.3c0-1.1,0-2.2,0-3.2,0-.8-.8-1.4-1.6-1.4-.8,0-1.6,.6-1.6,1.4,0,1.1,0,2.1,0,3.2Zm1.7,1.4c-.8,0-1.7,0-2.5,0-.2,0-.4,.2-.6,.3,.2,.1,.3,.3,.5,.3,1.6,0,3.3,0,4.9,0,.2,0,.3-.2,.5-.3-.2-.1-.4-.3-.6-.3-.8,0-1.6,0-2.4,0Z" style="fill: #0ba659;"/>
      <path d="M1.4,21.1c0,.6-.3,.8-.7,.8-.4,0-.6-.3-.6-.7,0-.4,.3-.7,.7-.6,.3,0,.5,.3,.6,.4Z" style="fill: #0ba659;"/>
    </g>
  </g>
</svg>