<?xml version="1.0" encoding="UTF-8"?>
<svg id="uuid-90f16b41-299b-4959-a4a0-62bd4668d6c2" data-name="Layer 2" xmlns="http://www.w3.org/2000/svg" width="26.5" height="33.3" viewBox="0 0 26.5 33.3">
  <g id="uuid-7514a8e4-0e5b-454b-be37-1606ad38b2cc" data-name="Capa 1">
    <g>
      <path d="M6.9,33.3c-.5-.2-1-.3-1.4-.6-.4-.2-.6-.6-.9-.9-.1-.1-.2-.2-.4-.2-1,0-2,0-3.1,0-.7,0-1.2-.6-1-1.2,.1-.4,.5-.6,1-.7,.8,0,1.7,0,2.5,0h.4v-.4c0-5.7,0-11.5,0-17.2,0-1.7,1.1-3,2.7-3.4,1.1-.2,2.1,0,2.9,.7,0,0,.1,.1,.2,.2,0,0,0,0,0,0,1.5-1.4,3.6-1.3,4.9,0,.7-.7,1.5-1,2.4-1s1.8,.4,2.4,1c2-1.9,5.1-1,5.8,1.5,.2,0,.5,0,.7,.1,.4,.2,.5,.5,.5,.9,0,.7,0,1.3,0,2,0,.8-.3,1.1-1.1,1.2v.4c0,4.7,0,9.3,0,14,0,1.2-.4,2.2-1.4,2.9-.4,.3-1,.5-1.5,.7h-.9c-.8-.2-1.5-.5-2-1.1-.6,.6-1.3,.9-2,1.1h-.8c-.5-.2-.9-.3-1.4-.6-.2-.1-.4-.3-.6-.5-.3,.2-.6,.5-1,.6-.3,.2-.7,.3-1.1,.4h-.9c-.7-.2-1.4-.5-2-1.1-.6,.6-1.2,.9-2,1.1h-.9Zm2-12.4c0-2.5,0-4.9,0-7.4,0-.6,0-1.1,0-1.7,0-.9-1-1.6-1.9-1.3-.7,.2-1.2,.8-1.2,1.7,0,5.8,0,11.7,0,17.5,0,.2,0,.4,0,.5,.1,.8,.9,1.3,1.7,1.2,.8-.1,1.4-.7,1.4-1.7,0-2.9,0-5.9,0-8.8Zm1.9,0c0,2.4,0,4.8,0,7.2,0,.6,0,1.3,0,1.9,0,1.1,1.2,1.7,2.2,1.2,.7-.3,.9-.9,.9-1.6,0-5.8,0-11.7,0-17.5,0-.2,0-.3,0-.5-.1-.9-1.1-1.5-1.9-1.2-.7,.2-1.1,.8-1.1,1.6,0,2.9,0,5.9,0,8.8Zm12.9,0c0-2.7,0-5.4,0-8,0-.4,0-.7,0-1.1,0-1-1-1.6-1.9-1.3-.7,.2-1.1,.8-1.1,1.7,0,5.8,0,11.7,0,17.5,0,.2,0,.3,0,.5,0,.6,.4,1,.9,1.2,.5,.2,1.1,.1,1.5-.2,.4-.4,.6-.8,.6-1.4,0-2.9,0-5.8,0-8.7Zm-4.9,0V12.3c0-.1,0-.3,0-.4-.1-1-1.1-1.6-2-1.3-.6,.2-1,.8-1,1.6,0,5.9,0,11.7,0,17.6s0,.2,0,.3c0,.9,.9,1.5,1.7,1.4,.8-.1,1.3-.7,1.3-1.6,0-2.9,0-5.9,0-8.8Z" style="fill: #0ba059;"/>
      <path d="M15.8,0c1.9,0,3.5,.7,4.8,1.9,.4,.4,.4,.9,0,1.3-.4,.4-.9,.4-1.3,0-.7-.7-1.5-1.1-2.5-1.3-1.5-.3-2.9,.1-4.1,1.1,0,0-.2,.1-.2,.2-.4,.3-.9,.3-1.3,0-.3-.4-.3-.9,0-1.3C12.3,.9,13.6,.3,15,0c.3,0,.6,0,.8,0" style="fill: #0ba059;"/>
      <path d="M18.1,6.6c0,.5-.2,.8-.5,1-.3,.2-.7,.1-1,0-.3-.2-.5-.4-.9-.2-.1,0-.3,.1-.4,.2-.5,.3-1,.3-1.3-.1-.3-.4-.2-.9,.2-1.3,1.1-.9,2.5-.9,3.5,0,.2,.2,.3,.4,.3,.6" style="fill: #0ba059;"/>
    </g>
  </g>
</svg>