<?xml version="1.0" encoding="UTF-8"?>
<svg id="uuid-71073a61-e75f-4d49-84db-230d32183bcc" data-name="Layer 2" xmlns="http://www.w3.org/2000/svg" width="51.4" height="51.5" viewBox="0 0 51.4 51.5">
  <g id="uuid-b8441bc6-0e5e-44b9-bc18-0565ad2c807b" data-name="Capa 1">
    <g>
      <path d="M8.6,49.8v-1.4c0-15.5,0-30.9,0-46.4Q8.6,0,10.6,0c6.8,0,13.6,0,20.4,0,1.4,0,1.6,.1,1.6,1.5,0,5.9,0,11.9,0,17.8v1.2c.4,0,.8,0,1.1,0,3.4,0,6.8,0,10.2,0,1.4,0,1.6,.2,1.6,1.6,0,8.8,0,17.6,0,26.4v1.3c1.6,0,3,0,4.4,0,.3,0,.7,0,1,.1,.3,.1,.6,.5,.6,.7,0,.3-.3,.7-.6,.8-.3,.1-.7,0-1,0-16.1,0-32.2,0-48.3,0-.2,0-.3,0-.5,0-.6,0-1.2-.2-1-.9,0-.3,.7-.8,1-.8,2,0,4.1,0,6.1,0,.4,0,.8,0,1.4,0ZM10.3,1.8V49.7h2.5c0-.4,0-.7,0-1,0-2.1,0-4.2,0-6.3,0-1.8,1-2.8,2.9-2.9,.4,0,.8,0,1.2,0,1.8,0,2.8,1.1,2.8,2.9,0,2.1,0,4.2,0,6.3,0,.4,0,.7,0,1h1.7v-1.3c0-5.2,0-10.5,0-15.7,0-3.6,0-7.2,0-10.8,0-1.2,.2-1.4,1.4-1.4,2,0,4.1,0,6.1,0,.6,0,1.2,0,1.8,0V1.8H10.3Zm12.9,47.9h20.5V22.4H23.2v27.3Zm-5.2,0c0-2.6,0-5.1,0-7.5,0-.3-.4-.8-.6-.9-.7-.1-1.4-.1-2.1,0-.3,0-.6,.5-.6,.8,0,2.5,0,5.1,0,7.7h3.4Z" style="fill: #2d302f;"/>
      <path d="M16.2,27.5c-.7,0-1.5,0-2.2,0-.7,0-1.1-.3-1.1-1.1,0-1.5,0-3.1,0-4.6,0-.7,.3-1.1,1.1-1.1,1.6,0,3.2,0,4.7,0,.7,0,1.1,.3,1.1,1.1,0,1.6,0,3.2,0,4.7,0,.8-.4,1.1-1.1,1.1-.8,0-1.6,0-2.4,0Zm1.8-5.1h-3.3v3.3h3.3v-3.3Z" style="fill: #2d302f;"/>
      <path d="M19.7,6.9c0,.8,0,1.5,0,2.3,0,.7-.3,1-1,1-1.6,0-3.2,0-4.8,0-.7,0-1-.3-1-1,0-1.6,0-3.2,0-4.8,0-.7,.4-1.1,1.1-1.1,1.6,0,3.2,0,4.8,0,.6,0,1,.3,1,1,0,.8,0,1.7,0,2.5Zm-1.8,1.7v-3.3h-3.4c0,1,0,1.8,0,2.7,0,.2,.3,.6,.5,.6,.9,0,1.8,0,2.8,0Z" style="fill: #2d302f;"/>
      <path d="M16.2,36c-.8,0-1.6,0-2.4,0-.7,0-1-.3-1-1,0-1.6,0-3.2,0-4.8,0-.7,.4-1.1,1-1.1,1.6,0,3.2,0,4.8,0,.6,0,1,.3,1,1,0,1.6,0,3.2,0,4.8,0,.7-.3,1-1,1-.8,0-1.6,0-2.4,0Zm1.7-5.1h-3.3v3.3h3.3v-3.3Z" style="fill: #2d302f;"/>
      <path d="M12.8,15.4c0-.7,0-1.5,0-2.2,0-.7,.3-1.1,1.1-1.1,1.6,0,3.2,0,4.7,0,.8,0,1.1,.4,1.1,1.1,0,1.5,0,3.1,0,4.6,0,.8-.4,1.1-1.1,1.1-1.5,0-3.1,0-4.6,0-.8,0-1.1-.4-1.1-1.2,0-.8,0-1.5,0-2.3Zm1.8,1.7h3.3v-3.3c-4.1,0-3.3-.8-3.3,3.3Z" style="fill: #2d302f;"/>
      <path d="M24.8,10.3c-.8,0-1.5,0-2.3,0-.7,0-1.1-.3-1.1-1,0-1.6,0-3.2,0-4.8,0-.7,.4-1,1.1-1,1.5,0,3.1,0,4.6,0,.8,0,1.2,.4,1.2,1.2,0,1.5,0,3,0,4.5,0,.8-.4,1.2-1.2,1.2-.8,0-1.5,0-2.3,0Zm1.6-1.8v-3.3h-3.3v3.3h3.3Z" style="fill: #2d302f;"/>
      <path d="M21.4,15.4c0-.7,0-1.5,0-2.2,0-.7,.3-1.1,1.1-1.1,1.6,0,3.2,0,4.7,0,.7,0,1.1,.4,1.1,1.1,0,1.6,0,3.2,0,4.7,0,.7-.4,1.1-1.1,1.1-1.5,0-3.1,0-4.6,0-.7,0-1.1-.4-1.1-1.1,0-.8,0-1.6,0-2.4Zm5.1-1.6h-3.3v3.3h3.3v-3.3Z" style="fill: #2d302f;"/>
      <path d="M34.3,27.4c0-.7,0-1.5,0-2.2,0-.7,.3-1.1,1.1-1.1,1.6,0,3.1,0,4.7,0,.7,0,1.1,.4,1.1,1.1,0,1.5,0,3,0,4.5,0,.8-.3,1.2-1.1,1.2-1.5,0-3.1,0-4.6,0-.8,0-1.1-.4-1.1-1.2,0-.8,0-1.5,0-2.3Zm5.1-1.6h-3.3v3.3h3.3v-3.3Z" style="fill: #2d302f;"/>
      <path d="M32.6,27.5c0,.8,0,1.5,0,2.3,0,.8-.3,1.1-1.1,1.1-1.6,0-3.2,0-4.7,0-.7,0-1.1-.3-1.1-1.1,0-1.6,0-3.2,0-4.7,0-.8,.4-1.1,1.1-1.1,1.5,0,3.1,0,4.6,0,.8,0,1.1,.4,1.1,1.2,0,.7,0,1.5,0,2.2Zm-5.1,1.6h3.3v-3.3h-3.3v3.3Z" style="fill: #2d302f;"/>
      <path d="M25.7,44.6c0-.8,0-1.5,0-2.3,0-.7,.3-1,1-1,1.6,0,3.2,0,4.8,0,.6,0,1,.3,1,1,0,1.6,0,3.2,0,4.8,0,.7-.4,1.1-1,1.1-1.6,0-3.1,0-4.7,0-.7,0-1.1-.4-1.1-1.1,0-.8,0-1.6,0-2.4Zm1.8-1.6v3.3h3.3v-3.3h-3.3Z" style="fill: #2d302f;"/>
      <path d="M32.6,36.1c0,.8,0,1.5,0,2.3,0,.7-.3,1-1,1-1.6,0-3.2,0-4.7,0-.8,0-1.1-.4-1.1-1.1,0-1.5,0-3.1,0-4.6,0-.8,.4-1.1,1.1-1.1,1.5,0,3.1,0,4.6,0,.8,0,1.2,.4,1.1,1.2,0,.8,0,1.5,0,2.3Zm-5.1,1.6h3.3v-3.3h-3.3v3.3Z" style="fill: #2d302f;"/>
      <path d="M37.7,39.5c-.8,0-1.6,0-2.4,0-.6,0-.9-.3-.9-.9,0-1.6,0-3.3,0-4.9,0-.7,.4-1,1-1,1.6,0,3.2,0,4.8,0,.6,0,1,.4,1,1,0,1.6,0,3.2,0,4.8,0,.7-.4,1-1.1,1-.8,0-1.6,0-2.4,0h0Zm1.7-1.7v-3.3h-3.3v3.3h3.3Z" style="fill: #2d302f;"/>
      <path d="M34.3,44.6c0-.8,0-1.5,0-2.3,0-.7,.3-1.1,1-1.1,1.6,0,3.2,0,4.8,0,.7,0,1,.4,1,1,0,1.6,0,3.2,0,4.8,0,.7-.4,1-1.1,1-1.6,0-3.2,0-4.7,0-.7,0-1-.4-1-1.1,0-.8,0-1.6,0-2.4Zm1.8-1.6v3.3h3.3v-3.3h-3.3Z" style="fill: #2d302f;"/>
    </g>
  </g>
</svg>