<?xml version="1.0" encoding="UTF-8"?>
<svg id="uuid-994d73c9-0496-45b2-8868-e75d12fdc340" data-name="Layer 2" xmlns="http://www.w3.org/2000/svg" width="25.8" height="31.8" viewBox="0 0 25.8 31.8">
  <g id="uuid-1f37d865-1cb5-4421-b4bd-45eae169d905" data-name="Capa 1">
    <path d="M11,24.5s-1.1,0-1.3-1.1c-.1-1.3,.9-3.1,1.3-3.3,.4,.3,1.4,2,1.3,3.3-.2,1.2-1.3,1.1-1.3,1.1m3.9,0s-1.1,0-1.2-1c0-1.3,.8-2.9,1.2-3.2,.4,.3,1.3,1.9,1.2,3.2-.2,1.1-1.2,1-1.2,1Zm-1.8,.2c0,0-.1-.1-.2-.2,0,0-.1,.2-.2,.2h.3Zm-4,0c-.3-.3-.5-.7-.5-1.2,0,0,0,0,0,0,0-.5,0-1.1,.2-1.6,.2-.8,.8-2.2,1.6-2.7,.4-.2,.8-.2,1.2,0,.6,.4,1.2,1.5,1.4,2.3,.3-.7,.8-1.6,1.3-2,.3-.2,.8-.2,1.1,0,.7,.5,1.3,1.8,1.5,2.6,.1,.5,.2,1,.2,1.6,0,0,0,0,0,0,0,.4-.2,.8-.5,1.1h3.1v-8.1H6.1v8.1h3.1Zm14.4,0V12.6H2.4v12.1h2.4V15.4H21v9.4h2.6Zm-22.4,0V11.4h1.8v-3.9L5.6,0h1.3l-2.7,7.8v3.6H21.8v-3.6L19.1,0h1.3l2.6,7.5v3.9h1.9v13.4h1v1.2h-2.2v5.8h-1.3v-5.8H3.7v5.8h-1.3v-5.8H0v-1.2H1.2Z" style="fill: #0ba059; fill-rule: evenodd;"/>
  </g>
</svg>