<?xml version="1.0" encoding="UTF-8"?>
<svg id="uuid-6188e3e5-2d9a-4e41-94e2-0aaf2927a960" data-name="Layer 2" xmlns="http://www.w3.org/2000/svg" width="29.8" height="29.9" viewBox="0 0 29.8 29.9">
  <g id="uuid-e825efa1-2a9f-46e0-9ee4-64ecb472d8f6" data-name="Capa 1">
    <g>
      <path d="M24.3,29.9c-.7-.2-1.3-.7-1.8-1.2-.1-.2-.3-.2-.5-.2-3.3,0-6.7,0-10,0-.1,0-.3,0-.4,0-.3,0-.4-.3-.4-.6,0-.3,.2-.5,.5-.5,.1,0,.3,0,.4,0,3,0,6,0,9,0h.4c0-.1-.2-.3-.2-.4-1.2-1.8-1.9-3.8-1.8-6,0-.5,.2-.7,.7-.8,.4,0,.8-.2,1.2-.3-.8-.9-1.7-1.5-2.7-2,0,.4,0,.8-.1,1.1-.2,1.1-.8,2-1.6,2.9-.3,.3-.6,.3-.9,0-1-1-2-1.9-3-2.9,0,0-.1-.1-.2-.2,0,0-.2,.1-.2,.2-1,.9-1.9,1.9-2.9,2.8-.4,.4-.7,.4-1.1,0-.7-.8-1.3-1.7-1.5-2.8,0-.3,0-.7-.1-1.1-.1,0-.2,.1-.3,.2-2.1,1.1-3.5,2.8-4.4,5-.4,1-.7,2-.9,3-.1,.9,0,1.2,.9,1.2,1.3,0,2.6,0,3.8,0,.1,0,.3,0,.4,0,.3,0,.5,.3,.5,.6,0,.3-.2,.5-.5,.6,0,0,0,0-.1,0-1.4,0-2.8,0-4.3,0-.1,0-.3,0-.4,0-1.2-.2-1.8-1-1.6-2.1,.8-4.7,3-8.3,7.7-9.9,0,0,.1,0,.2,0-.3-.3-.6-.7-.8-1-1-1.4-1.6-2.8-1.5-4.6,0-.2,0-.4-.3-.5-1.3-.8-1.2-2.6,.1-3.3,.1,0,.2-.2,.2-.3C6.1,3.6,7.8,1.7,10.7,.7c0,0,.2-.1,.2-.2C11.1,.2,11.4,0,11.8,0,12.4,0,13.1,0,13.7,0c.4,0,.7,.2,.9,.6,0,0,.2,.2,.2,.2,2.6,.9,4.2,2.7,4.8,5.4,0,.4,.2,.7,.6,1,1.1,.8,1,2.4-.2,3.1-.1,0-.2,.2-.2,.3,.1,2.2-.8,4-2.3,5.5,0,0,0,0-.1,.2,1.9,.6,3.5,1.6,4.8,3.1,.6-.5,1.2-.9,1.7-1.4,.4-.4,.7-.4,1.1,0,1.1,1,2.3,1.8,3.8,2.2,0,0,0,0,.1,0,.8,0,.9,.4,.9,1,0,2.7-1,4.9-2.6,6.9-.2,.2-.3,.4-.5,.5-.5,.6-1.1,1.1-1.9,1.3h-.5ZM6.7,10.5c0,.3,0,.6,0,.9,0,.3,0,.5,.1,.8,.7,2.4,2.3,4,4.6,5,.7,.3,1.4,.4,2.1,.1,2.5-.8,4.2-2.5,5-5,.2-.6,.2-1.2,.1-1.8H6.7Zm13.7,10.8c0,.4,0,.8,0,1.2,.3,2.3,1.5,4.2,3.1,5.8,.7,.7,1.1,.7,1.8,0,1.4-1.3,2.4-2.9,2.9-4.8,.2-.7,.3-1.4,.3-2.2-1.6-.4-2.9-1.2-4.1-2.2-2,1.5-2.2,1.6-4.1,2.2Zm-7.7-11.9h6.2c.1,0,.2,0,.3,0,.4,0,.7-.4,.7-.9,0-.4-.3-.6-.8-.6-4.3,0-8.5,0-12.8,0,0,0-.1,0-.2,0-.3,0-.6,.4-.6,.7,0,.5,.3,.8,.9,.8,2.1,0,4.2,0,6.3,0Zm-1.8-7.5c-2.3,.7-3.9,3-4,4.8,0,0,0,0,.1,0,1,0,2,0,2.9,0,.2,0,.2,0,.3-.2,.5-1.5,.6-3,.7-4.6Zm3.9,0c0,1.6,.1,3.1,.7,4.6,0,0,.2,.2,.3,.2,.9,0,1.8,0,2.7,0,0,0,.1,0,.2,0-.3-2.3-2.1-4.2-3.9-4.7Zm-2.7-.8c0,1.9,0,3.7-.7,5.5h2.8c-.6-1.8-.7-3.7-.7-5.5h-1.5Zm-.6,17.3c-.7-.3-1.4-.6-2-1-.4-.3-.7-.3-1.1,0,0,0-.2,.1-.2,.2,0,.4,0,.8,0,1.2,0,.7,.4,1.3,.9,1.9,.8-.8,1.6-1.5,2.3-2.2Zm4.9,2.2c.7-.8,1-1.8,1-2.8,0-.2,0-.4-.2-.5-.3-.1-.6-.3-.9,0-.6,.5-1.3,.8-2,1,0,0-.1,0-.2,0,.8,.8,1.6,1.5,2.3,2.3Z" style="fill: #0ba059;"/>
      <path d="M8.4,27.9c0-.3,.3-.6,.6-.6,.3,0,.6,.3,.6,.6,0,.3-.3,.6-.6,.6-.3,0-.6-.3-.6-.6" style="fill: #0ba059;"/>
      <path d="M24.2,24.3c.5-.6,1-1.1,1.5-1.7,.2-.2,.4-.3,.6-.2,.2,0,.4,.2,.4,.5,0,.2,0,.4-.2,.5-.6,.7-1.2,1.4-1.9,2.1-.2,.3-.5,.3-.8,0-.3-.2-.6-.5-.9-.7-.3-.2-.3-.6-.1-.8,.2-.3,.5-.3,.8,0,.2,.1,.4,.3,.5,.4" style="fill: #0ba059;"/>
    </g>
  </g>
</svg>