<?xml version="1.0" encoding="UTF-8"?>
<svg id="uuid-7429a63c-72d4-4cb1-882c-3cfa33475dc3" data-name="Layer 2" xmlns="http://www.w3.org/2000/svg" width="30.8" height="35" viewBox="0 0 30.8 35">
  <g id="uuid-6097f67c-8638-46d2-804b-516442a5afda" data-name="Capa 1">
    <g>
      <path d="M6.4,12.4H14.9c0-.3,0-.6,0-.8,0-2.4,0-4.7,0-7.1C15,1.8,16.9,0,19.4,0c2,0,3.8,1.6,4,3.7,0,.9,0,1.9,0,2.8h-2c0-.8,0-1.7,0-2.5-.1-1.4-1.6-2.3-2.9-1.8-.8,.3-1.2,.9-1.4,1.7,0,.3,0,.5,0,.8,0,4.3,0,8.7,0,13,0,.5,0,.8,.6,1,.1,0,.2,.1,.3,.2,1.1,.9,2.2,.8,3.3,0,1.4-1,2.9-1.2,4.4-.3,1.5,1,2.8,1.3,4.2-.1l1.1,1.8c-1.3,.8-2.5,1.6-4,1.2-.7-.2-1.4-.5-2-.9-.9-.6-1.7-.6-2.6,0-1.1,.7-2.2,1.3-3.6,.9-.7-.2-1.3-.5-2-.9-.9-.6-1.7-.6-2.6,0-1,.7-2.1,1.3-3.4,.9-.5-.1-1.1-.3-1.6-.6-1.3-1-2.4-.9-3.7,0-1,.7-2.1,1-3.2,.6-.7-.2-1.4-.7-2.2-1.1l1.1-1.8c.3,.2,.6,.4,.9,.6,.3,.2,.7,.3,1,.4,.8,.1,1.2-.2,1.2-1.1,0-4.6,0-9.3,0-13.9,0-2.3,1.4-4,3.5-4.5,2.2-.4,4.6,1.2,4.9,3.4,.1,1,0,2,0,3h-2c0-.7,0-1.5,0-2.2,0-1.7-1.6-2.7-3.1-2.1-.8,.4-1.3,1.1-1.3,1.9,0,2.7,0,5.3,0,8,0,0,0,0,0,.2Zm0,5.7c1.5-.3,2.7,.2,3.8,1,.8,.5,1.5,.5,2.3,0,.8-.4,1.6-.8,2.4-1.3v-3.3H6.3v3.6Z" style="fill: #0ba659;"/>
      <path d="M29.8,25.4l1,1.7c-1.3,.8-2.5,1.6-4,1.2-.7-.2-1.3-.5-1.9-.9-.9-.6-1.8-.6-2.7,0-1.1,.7-2.2,1.3-3.6,.9-.7-.2-1.3-.6-2-.9-.9-.5-1.6-.6-2.5,0-1.1,.7-2.3,1.4-3.6,1-.7-.2-1.4-.6-2-1-.9-.5-1.6-.6-2.5,0-1.1,.7-2.3,1.4-3.6,1-.8-.2-1.6-.7-2.4-1.1l1.1-1.8c.1,0,.3,.1,.3,.2,1.2,1,2.4,.9,3.6,0,1.5-1,3-1,4.5,0,.3,.2,.6,.4,.9,.5,.6,.3,1.2,.3,1.8,0,.3-.2,.7-.4,1-.6,1.5-.9,3-.9,4.4,0,.2,.1,.4,.3,.6,.4,.8,.5,1.5,.5,2.3,0,.2-.2,.5-.3,.8-.4,1.5-.9,3-.9,4.4,0,.2,.1,.4,.3,.6,.4,.8,.5,1.5,.5,2.3,0,.3-.2,.7-.4,1-.6Z" style="fill: #0ba659;"/>
      <path d="M0,33.8l1-1.7c.3,.1,.5,.2,.7,.4,1,.7,1.9,.7,2.9,0,1.8-1.3,3.6-1.2,5.3,0,.9,.7,1.8,.7,2.8,0,1.1-.8,2.4-1.3,3.8-.8,.6,.2,1.2,.6,1.7,.9,.8,.5,1.6,.5,2.4,0,.3-.2,.7-.4,1-.6,1.3-.7,2.6-.8,3.8,0,1.5,1,2.8,1.4,4.3-.1l1,1.8c-2,1.7-3.7,1.7-5.4,.6-.2-.2-.5-.3-.8-.5-.7-.4-1.4-.5-2,0-2.1,1.5-4.1,1.5-6.2,0-.6-.5-1.3-.4-1.9,0-2.1,1.5-4.1,1.6-6.2,0-.6-.4-1.2-.4-1.9,0-.3,.2-.6,.4-.9,.5-1.5,.9-3,.9-4.4,0-.3-.2-.6-.4-.9-.6Z" style="fill: #0ba659;"/>
    </g>
  </g>
</svg>