<?xml version="1.0" encoding="UTF-8"?>
<svg id="uuid-6805705b-ef3a-4be7-a948-738bcdf41448" data-name="Layer 2" xmlns="http://www.w3.org/2000/svg" width="31.5" height="31.5" viewBox="0 0 31.5 31.5">
  <g id="uuid-785bfcd5-533b-4fe5-816d-8069485c10ac" data-name="Capa 1">
    <g>
      <path d="M23.2,24.1c-.3,0-.6,0-1,0-.6,0-.9-.4-.9-.9,0-.5,.4-.9,.9-.9,.6,0,1.2,0,1.9,0,.5,0,.9,.4,.9,.9s-.3,.9-.9,.9c-.3,0-.6,0-.9,0h0Z" style="fill: #0ba059;"/>
      <g>
        <path d="M26.9,29.6c1.1,0,2.2,0,3.2,0,.2,0,.3,0,.5,0,.5,0,.8,.4,.9,.9,0,.5-.3,.9-.8,1-.1,0-.3,0-.4,0-9.6,0-19.3,0-28.9,0S0,31.2,0,30.6c0-.6,.4-.9,1.3-.9h3.3c0-.7,0-1.3,0-1.9,0,0-.1-.2-.3-.2-1.1-.6-1.6-1.4-1.6-2.6,0-.8,0-1.6,0-2.3,0-1.1,.3-2,1.1-2.7,.1,0,.2-.2,.4-.4-.5-.4-.9-.8-1.3-1.2-.4-.4-.3-.9,0-1.3,.4-.3,.9-.4,1.3,0,.2,.2,.4,.4,.6,.6,.1,.1,.2,.2,.4,.3,.8-1.7,1.7-3.3,2.5-4.9,.1-.2,.2-.5,.4-.7,.6-.8,1.4-1.1,2.3-1.1,3.5,0,7,0,10.5,0,1.2,0,2.1,.5,2.6,1.6,.8,1.5,1.6,3.1,2.3,4.7,0,.2,.2,.3,.3,.5,.3-.3,.6-.6,.9-.9,.4-.4,1-.4,1.4,0,.4,.4,.4,.9,0,1.4-.4,.4-.8,.7-1.2,1.1,0,.1,.1,.2,.2,.2,1,.8,1.4,1.9,1.3,3.2,0,.7,0,1.4,0,2.2,0,1.1-.5,2-1.5,2.5-.2,.1-.3,.3-.3,.5,0,.5,0,1.1,0,1.7m-11.1-3.7c3.3,0,6.7,0,10,0,.8,0,1.1-.3,1.1-1.1,0-.6,0-1.1,0-1.7,.1-1-.2-1.8-1-2.4-.3-.2-.5-.3-.8-.3-6,0-11.9,0-17.9,0-.9,0-1.5,.2-2.1,.9-.3,.3-.4,.6-.4,1,0,.8,0,1.6,0,2.4,0,1,.3,1.3,1.3,1.3H15.7Zm8.6-7.4c0,0,0-.1,0-.2-.8-1.6-1.6-3.2-2.4-4.8-.2-.4-.5-.6-1-.6-3.5,0-6.9,0-10.4,0-.5,0-.8,.2-1.1,.7-.8,1.5-1.5,3.1-2.3,4.6,0,0,0,.2-.1,.3H24.4Zm-5,9.3h-7.4v1.8h7.4v-1.8Zm-9.2,0h-3.7v1.8h3.7v-1.8Zm11.2,1.8h3.6v-1.8h-3.6v1.8Z" style="fill: #0ba059;"/>
        <path d="M30.4,11.1c-.1,0-.4-.2-.6-.3-4-2.7-7.9-5.5-11.9-8.2-1.5-1-2.9-1-4.4,0-1.3,.9-2.7,1.8-4,2.8-2.6,1.8-5.2,3.6-7.8,5.4,0,0-.2,.1-.3,.2-.5,.3-1,.2-1.3-.2-.3-.4-.2-1,.3-1.3,.8-.6,1.6-1.1,2.5-1.7C6.1,5.5,9.3,3.3,12.5,1.1c2.1-1.5,4.4-1.5,6.6,0,3.9,2.7,7.9,5.4,11.8,8.1,.6,.4,.7,.8,.6,1.3-.2,.4-.4,.6-1,.6" style="fill: #0ba059;"/>
        <path d="M8.3,24.1c-.3,0-.6,0-.9,0-.6,0-.9-.4-.9-.9,0-.5,.4-.9,.9-.9,.6,0,1.2,0,1.9,0,.5,0,.9,.4,.9,.9,0,.5-.4,.9-.9,.9-.3,0-.6,0-1,0h0Z" style="fill: #0ba059;"/>
      </g>
    </g>
  </g>
</svg>