<?xml version="1.0" encoding="UTF-8"?>
<svg id="uuid-f25ad0ad-e178-48f5-b81a-66c913aa8882" data-name="Layer 2" xmlns="http://www.w3.org/2000/svg" width="50.3" height="55.2" viewBox="0 0 50.3 55.2">
  <g id="uuid-2ea6ff78-7fcd-4c1e-abde-7cd256d81641" data-name="Capa 1">
    <g>
      <path d="M30,36.1c1.2,.1,2.3,.3,3.3-.3,.8-.5,1.7-.6,2.7-.9-1.1-1.6-1.8-3.4-1.8-5.4,0-3.6,2.7-6.3,6.3-6.1,3.3,.1,5.9,3.2,5.5,6.6,0,.9-.3,1.8-.6,2.6-.3,.8-.7,1.5-1.2,2.4,.3,0,.6,.1,.9,.2,3,.5,5.1,2.9,5.1,6,0,2,0,4.1,0,6.1,0,1.1-.4,1.5-1.5,1.4-2.6,0-5.3,0-7.9,0-.4,0-.8,0-1.3,0,0,1.7,0,3.3,0,4.9,0,1.4-.2,1.6-1.5,1.6-8.6,0-17.3,0-25.9,0-1.3,0-1.5-.2-1.5-1.5,0-1.6,0-3.1,0-4.7,0,0,0-.1-.1-.3-1,0-2.1,0-3.2,0-2,0-4,0-6,0-.9,0-1.3-.3-1.3-1.3,0-2.2,0-4.5,0-6.7,0-2.7,2.2-5.1,5-5.6,.3,0,.6-.1,.8-.1-.5-1.5-1.1-2.8-1.4-4.3-.5-2.9,.5-5.2,2.7-6.5,2.2-1.3,4.3-1.2,6.4,.2,2.1,1.4,3,3.9,2.4,6.7-.3,1.3-.9,2.6-1.4,3.9,1.8,0,3.4,1.9,5.7,1-1.5-1.6-2.5-3.6-2.9-5.8-.8-3.7-.2-7,2.9-9.4,2.6-2,6.2-2.2,9.1-.6,2.9,1.7,4.5,5,4,8.5-.3,2.7-1.3,5.2-3.3,7.4Zm7.8,17.3c0-3,0-5.8,0-8.7,0-3.5-2.4-6.3-5.9-6.7-1.2-.1-2.4-.1-3.5-.1-3.3,0-6.6,0-9.9,.1-3.6,.2-6,3.1-6,6.6,0,1.1,0,2.2,0,3.3,0,1.8,0,3.5,0,5.3h4.5c0-.5,0-.9,0-1.4,0-1.3,0-2.6,0-3.9,0-.4,.6-.7,.9-1,.3,.3,.6,.6,.8,1,.1,.3,0,.7,0,1.1,0,1.4,0,2.8,0,4.2h12.8c0-.5,0-.9,0-1.3,0-1.3,0-2.6,0-3.9,0-.4,.5-1,.8-1.1,.7-.1,.9,.4,1,1.1,0,.4,0,.7,0,1.1,0,1.4,0,2.7,0,4.1h4.5ZM15.2,36.9c-3.3,0-6.6-.1-9.9,0-1.8,.1-3.2,1.4-3.4,3.2-.2,2.2,0,4.4,0,6.6H10.8c-.5-4.2,.7-7.6,4.4-9.9Zm33.4,9.9c0-2,0-3.9,0-5.8,0-2.1-1.4-3.9-3.5-4.1-3.2-.2-6.5,0-9.8,0,0,0,0,0-.1,.2,3.8,2.1,4.9,5.5,4.5,9.7h9ZM31.3,29.3c-1.3-.3-2.6-.6-3.8-1-1.3-.5-2.4-1.3-3.6-1.9-.3-.1-.7,0-1,.1-1.1,.6-2.2,1.4-3.3,2-.6,.3-.8,.7-.5,1.3,.5,1.2,.9,2.5,1.5,3.7,.9,1.6,2.4,2.6,4.3,2.7,3.3,.2,6.3-3,6.5-6.8Zm4.7,0h-.3c.5,1.4,.8,2.8,1.5,4,1.4,2.2,4.3,2.3,5.7,0,.7-1.1,1.1-2.5,1.3-3.8,.3-2.4-1.6-4.4-4-4.5-2.4,0-4.2,1.8-4.2,4.3Zm-21.4,.3c-.2-2.5-1.7-4.4-3.9-4.6-2.3-.2-4.3,1.4-4.5,3.7-.1,1.7,.3,3.3,1.3,4.7,1.5,2,4.3,2,5.6-.2,.7-1.1,1-2.5,1.5-3.7Zm17-2.3c0-3.6-2.8-6.4-6.2-6.5-3.5,0-6.3,2.5-6.5,5.9,1.2-.7,2.4-1.3,3.4-2.1,.9-.6,1.6-.6,2.5,0,2,1.5,4.2,2.4,6.8,2.6Z" style="fill: #2d302f;"/>
      <path d="M19.6,15.1c.2-1.2,.4-2.5,.5-3.8,0-.4-.2-1-.4-1.3-.8-.9-1.7-1.7-2.5-2.7-.3-.3-.5-.8-.4-1.1,.1-.3,.6-.6,1-.7,1.2-.3,2.4-.4,3.6-.7,.4-.1,.9-.5,1.1-.8,.7-1.1,1.2-2.2,1.8-3.3,.6-1,1.3-1,1.8,0,.6,1.1,1.1,2.2,1.8,3.2,.3,.4,.8,.8,1.3,1,1.1,.3,2.3,.4,3.5,.7,.4,0,1,.4,1,.6,0,.4-.2,.9-.4,1.2-.6,.7-1.2,1.4-1.9,1.9-1.1,.8-1.3,1.9-.9,3.1,.2,.8,.3,1.7,.4,2.5,.1,1.4-.4,1.7-1.6,1.2-1.1-.5-2.2-1.1-3.3-1.6-.4-.2-.9-.2-1.3,0-1.2,.5-2.3,1.1-3.5,1.7-1,.4-1.5,0-1.4-1.1ZM25.2,2.8c-.5,1-1,1.6-1.3,2.4-.4,1-1.1,1.3-2,1.4-.8,0-1.6,.3-2.4,.4l-.2,.3c2.7,1.5,3.3,3.7,2.1,6.7,1.2-.6,2.1-.9,2.9-1.4,.7-.4,1.3-.4,2,0,.8,.4,1.6,.8,2.6,1.3-.1-1.1-.2-1.9-.4-2.7-.2-.9,0-1.5,.6-2.1,.7-.6,1.2-1.3,2-2.1-.9-.2-1.6-.3-2.3-.4-1.2,0-2-.5-2.4-1.7-.3-.7-.7-1.3-1.1-2.2Z" style="fill: #2d302f;"/>
      <path d="M3.2,15.2s0,0,0-.1c.7-2.1,.2-3.8-1.6-5.2-.9-.7-.6-1.7,.5-1.7,2.3-.1,3.7-1.1,4.5-3.3,.4-1,1.4-1,1.8,0,.8,2.1,2.1,3.1,4.4,3.2,1.2,0,1.5,1,.6,1.7-1.8,1.4-2.3,3.1-1.7,5.3,.3,.9-.6,1.6-1.4,1-1.9-1.3-3.7-1.3-5.6,0-.8,.6-1.5,0-1.4-1Zm2.1-1.4c1.5-1.1,2.9-1,4.4,0-.8-1.8,0-3.1,1.3-4.3-1.9,.1-3-.9-3.6-2.6-.4,1.9-1.7,2.6-3.5,2.7,1.5,1.1,1.8,2.4,1.4,4.1Z" style="fill: #2d302f;"/>
      <path d="M42.8,4c.4,.3,.8,.6,.9,.9,.7,2.2,2.2,3.2,4.5,3.3,1.1,0,1.3,.9,.6,1.7,0,0,0,.1-.2,.2-1.8,1.2-2.2,2.8-1.6,4.9,.1,.4,0,1.1-.3,1.3-.3,.2-1,.1-1.3,0-1.7-1.2-3.4-1.3-5.1,0-.3,.2-1.1,.3-1.3,.1-.3-.3-.3-.9-.4-1.4,0,0,0-.1,0-.2,.6-1.8,.2-3.2-1.4-4.3-.2-.1-.3-.3-.5-.5-.6-.8-.4-1.6,.5-1.6,2.4-.1,3.9-1.1,4.7-3.4,0-.3,.5-.5,.9-.8Zm-3.6,5.6c1.4,1.1,1.9,2.5,1.4,4.2,1.5-1,2.9-1.1,4.4,0-.5-1.8,0-3.1,1.5-4.1q-2.3-.5-3.7-2.7c-.5,1.7-1.6,2.7-3.5,2.6Z" style="fill: #2d302f;"/>
    </g>
  </g>
</svg>