<?xml version="1.0" encoding="UTF-8"?>
<svg id="uuid-2bb7deaf-5051-4228-b1b0-6676548ea73a" data-name="Layer 2" xmlns="http://www.w3.org/2000/svg" width="4" height="13" viewBox="0 0 4 13">
  <g id="uuid-dbe74e80-1b5c-486c-9b6f-544a73e40ab1" data-name="Capa 1">
    <path d="M2.5,12.8c0,0-.1,0-.2,0,0,.1-.2,.2-.3,.2s-.3,0-.3-.2c0,0-.1,0-.2,0-.2,0-.3-.1-.3-.3s0-.1,0-.2c0,0,.2,0,.3,0h1c0,0,.2,0,.3,0,0,0,0,.1,0,.2,0,.2-.1,.3-.3,.3M1.2,4.2v2.1h1.5v-2.1H1.2ZM.1,9.3c.3,.3,.9,.4,1.5,.5v1.6h0c-.2,0-.4,.2-.4,.4,0,.1,0,.2,.1,.3,0,0,.2,.1,.3,.1h.8c.2,0,.4-.2,.4-.4s-.2-.4-.4-.4v-1.6c.6,0,1.1-.2,1.4-.5,.2-.1,.2-.4,0-.6-.1-.2-.4-.2-.6,0-.1,.1-.3,.2-.6,.2v-2.2H1.2v2.2c-.3,0-.5-.1-.6-.2-.2-.1-.4-.1-.6,0-.1,.2-.1,.4,0,.6ZM2.7,1.4H1.2V3.7h1.5V1.4Zm0-.4H1.2L2,0l.7,1Z" style="fill: #fff; fill-rule: evenodd;"/>
  </g>
</svg>