<?xml version="1.0" encoding="UTF-8"?>
<svg id="uuid-d316dabd-a84e-4ec6-b6cf-db3419b9c171" data-name="Layer 2" xmlns="http://www.w3.org/2000/svg" width="267.3" height="82.8" viewBox="0 0 267.3 82.8">
  <g id="uuid-3e21eee9-b23d-400d-a3bb-78821ff107c0" data-name="Capa 1">
    <g>
      <g>
        <path d="M24.6,3.3h17.2V81.4H24.6V3.3Z" style="fill: #fff;"/>
        <path d="M62.3,64.5v-28.3h-7.1v-14.5h7.1V6.4h17v15.3h14.1v14.5h-14.1v25.5c0,3.9,1.7,5.8,5.5,5.8s5.9-.8,8.4-2.1v13.6c-3.6,2.1-7.7,3.5-13.4,3.5-10.4,0-17.4-4.1-17.4-18Z" style="fill: #fff;"/>
        <path d="M102.2,64.3v-.2c0-13.1,9.9-19.1,24.1-19.1s10.4,1,14.6,2.5v-1c0-7-4.4-10.9-12.8-10.9s-11,1.2-16.5,3.2l-4.2-12.9c6.6-2.9,13.1-4.8,23.2-4.8s16,2.5,20.2,6.7c4.5,4.5,6.5,11,6.5,19.1v34.7h-16.4v-6.5c-4.1,4.6-9.8,7.6-18.1,7.6s-20.5-6.5-20.5-18.3Zm38.9-3.9v-3c-2.9-1.3-6.7-2.2-10.8-2.2-7.3,0-11.7,2.9-11.7,8.3v.2c0,4.6,3.8,7.3,9.3,7.3,7.9,0,13.3-4.4,13.3-10.5Z" style="fill: #fff;"/>
        <path d="M172.6,0h17V81.4h-17V0Z" style="fill: #fff;"/>
        <path d="M202.6,51.9v-.2c0-17.2,13.8-31.1,32.5-31.1s32.2,13.7,32.2,30.9v.2c0,17.2-13.8,31.1-32.5,31.1s-32.2-13.7-32.2-30.9Zm48,0v-.2c0-8.8-6.4-16.5-15.7-16.5s-15.5,7.5-15.5,16.3v.2c0,8.8,6.4,16.5,15.7,16.5s15.5-7.5,15.5-16.3Z" style="fill: #fff;"/>
      </g>
      <rect y="3.1" width="23.7" height="23.7" style="fill: #0ba659;"/>
      <path d="M12.4,21.2c0,0-.1,0-.2,0,0,.1-.2,.2-.3,.2s-.3,0-.3-.2c0,0-.1,0-.2,0-.2,0-.3-.1-.3-.3s0-.1,0-.2c0,0,.2,0,.3,0h1c0,0,.2,0,.3,0,0,0,0,.1,0,.2,0,.2-.1,.3-.3,.3m-1.3-8.6v2.1h1.5v-2.1h-1.5Zm-1.1,5.1c.3,.3,.9,.4,1.5,.5v1.6h0c-.2,0-.4,.2-.4,.4,0,.1,0,.2,.1,.3,0,0,.2,.1,.3,.1h.8c.2,0,.4-.2,.4-.4s-.2-.4-.4-.4v-1.6c.6,0,1.1-.2,1.4-.5,.2-.1,.2-.4,0-.6-.1-.2-.4-.2-.6,0-.1,.1-.3,.2-.6,.2v-2.2h-1.5v2.2c-.3,0-.5-.1-.6-.2-.2-.1-.4-.1-.6,0-.1,.2-.1,.4,0,.6Zm2.6-7.9h-1.5v2.3h1.5v-2.3Zm0-.4h-1.5l.7-1,.7,1Z" style="fill: #fff; fill-rule: evenodd;"/>
    </g>
  </g>
</svg>