<?xml version="1.0" encoding="UTF-8"?>
<svg id="uuid-bd20ecd2-b6e0-4393-bb91-b31d89fa5eaa" data-name="Layer 2" xmlns="http://www.w3.org/2000/svg" width="89.5" height="37.7" viewBox="0 0 89.5 37.7">
  <g id="uuid-bac82f53-ef2b-4e6d-80aa-9b81b648bf8a" data-name="Capa 1">
    <g>
      <path d="M7.3,37.2c-.2,0-.3,0-.5-.1-.2,.3-.6,.6-1,.6s-.8-.2-1-.6c-.1,0-.3,.1-.5,.1-.5,0-.9-.4-.9-.9s0-.4,.2-.6c.2,.1,.5,.2,.7,.2h3c.3,0,.5,0,.8-.2,.1,.2,.2,.4,.2,.6,0,.5-.4,.9-.9,.9M3.6,12.2v6H7.9v-6H3.6ZM.4,27c.9,.8,2.5,1.3,4.2,1.4v4.7h0c-.6,0-1.2,.5-1.2,1.2,0,.3,.1,.6,.3,.8,.2,.2,.5,.3,.8,.3h2.3c.6,0,1.2-.5,1.2-1.2s-.5-1.2-1.2-1.2v-4.7c1.7-.1,3.3-.6,4.2-1.4,.5-.4,.6-1.1,.2-1.6-.4-.5-1.1-.6-1.6-.2-.4,.3-1,.5-1.7,.7v-6.4H3.6v6.4c-.7-.1-1.4-.4-1.7-.7-.5-.4-1.2-.4-1.6,0-.4,.5-.4,1.2,0,1.6ZM7.9,4H3.6v6.7H7.9V4Zm0-1H3.6L5.8,0l2.1,3Z" style="fill: #0ba859; fill-rule: evenodd;"/>
      <path d="M61,24.5c2.9,0,4.6-.4,6.2-1l-.9-3c-1.4,.4-2.8,.7-4.8,.7-4.3,0-7.5-2.4-7.5-7.4s3-7.1,7-7.1c2.5,0,3.6,.4,5.1,.8l1-3c-1.1-.5-2.9-1.2-6.2-1.2-7.2,0-10.9,3.8-10.9,10.7s3.9,10.4,11.1,10.4" style="fill: #fefefe;"/>
      <path d="M21,13.8V6.8h2.9c2.8,0,4,1,4,3.4s-1.7,3.5-4.7,3.5h-2.2Zm10.9-3.7c0-4.4-3.1-6.4-7.4-6.4h-7.5V24.2h4v-7.5h2c4.1,0,8.9-1.8,8.9-6.6Z" style="fill: #fefefe;"/>
      <rect x="35.8" y="10.7" width="3.9" height="13.5" style="fill: #fefefe;"/>
      <rect x="35.8" y="3.7" width="3.9" height="5.8" style="fill: #fefefe;"/>
      <rect x="43.2" y="10.7" width="3.9" height="13.5" style="fill: #fefefe;"/>
      <rect x="43.2" y="3.7" width="3.9" height="5.8" style="fill: #fefefe;"/>
      <path d="M33.2,21.2c-1.3-.5-2.4-1.2-3.4-2.4l-1.7-2.2c-.8,.6-2.8,1-4,1l2.1,2.7c1.7,2.2,3.6,3.6,6.1,4l1-3.2Z" style="fill: #fefefe;"/>
      <g>
        <g>
          <polygon points="69.3 24.2 73.2 24.2 79.7 7.5 85.4 24.2 89.5 24.2 82.4 3.7 77.3 3.7 69.3 24.2" style="fill: #fefefe;"/>
          <rect x="77.3" y="18" width="3.9" height="6.2" style="fill: #0ba859;"/>
        </g>
        <g>
          <path d="M18.3,32.8c-.5,0-.9-.2-1.2-.5-.3-.3-.5-.7-.5-1.2s.2-.9,.5-1.2c.3-.3,.7-.5,1.2-.5s.6,0,.8,.2c.3,.1,.4,.3,.6,.6l-.6,.3c0-.1-.2-.3-.3-.3-.2,0-.3-.1-.5-.1-.3,0-.6,.1-.8,.3-.2,.2-.3,.5-.3,.8s0,.6,.3,.8c.2,.2,.5,.3,.8,.3s.4,0,.5-.1c.2,0,.3-.2,.3-.3l.6,.3c-.1,.2-.3,.4-.6,.6-.3,.1-.5,.2-.8,.2Z" style="fill: #0ba859;"/>
          <path d="M26.1,32.3c-.3,.3-.7,.5-1.2,.5s-.9-.2-1.2-.5c-.3-.3-.5-.7-.5-1.2s.2-.9,.5-1.2c.3-.3,.7-.5,1.2-.5s.9,.2,1.2,.5c.3,.3,.5,.7,.5,1.2s-.2,.9-.5,1.2Zm-2-.4c.2,.2,.5,.3,.8,.3s.6-.1,.8-.3c.2-.2,.3-.5,.3-.8s-.1-.6-.3-.8c-.2-.2-.5-.3-.8-.3s-.6,.1-.8,.3c-.2,.2-.3,.5-.3,.8s.1,.6,.3,.8Z" style="fill: #0ba859;"/>
          <path d="M32.3,29.4h.6v3.3h-.5l-1.4-2v2h-.6v-3.3h.5l1.4,2v-2Z" style="fill: #0ba859;"/>
          <path d="M37.9,32.8c-.3,0-.6,0-.8-.2-.2-.1-.4-.3-.5-.6l.6-.3c.1,.3,.4,.5,.8,.5s.3,0,.4,0c0,0,.1-.1,.1-.2s0-.2-.2-.3c-.1,0-.3-.1-.6-.2-.1,0-.3,0-.4-.1-.1,0-.2-.1-.3-.2-.1,0-.2-.2-.2-.3,0-.1,0-.2,0-.4,0-.3,.1-.5,.3-.7,.2-.2,.5-.3,.8-.3s.5,0,.7,.2c.2,.1,.4,.3,.5,.5l-.5,.3c-.1-.3-.3-.4-.6-.4s-.2,0-.3,0c0,0-.1,.1-.1,.2s0,.2,.1,.3c0,0,.3,.1,.5,.2,.1,0,.2,0,.2,0,0,0,.1,0,.2,0,0,0,.2,0,.2,.1,0,0,.1,0,.2,.1,0,0,.1,.1,.1,.2,0,0,0,.1,0,.2,0,0,0,.2,0,.3,0,.3-.1,.5-.3,.7-.2,.2-.5,.3-.9,.3Z" style="fill: #0ba859;"/>
          <path d="M44.9,29.4v.6h-.9v2.7h-.6v-2.7h-.9v-.6h2.4Z" style="fill: #0ba859;"/>
          <path d="M50.3,32.7l-.7-1.1h-.5v1.1h-.6v-3.3h1.3c.3,0,.6,.1,.8,.3,.2,.2,.3,.5,.3,.8s0,.4-.2,.6c-.1,.2-.3,.3-.5,.4l.7,1.2h-.7Zm-1.2-2.7v1h.7c.1,0,.2,0,.3-.1,0,0,.1-.2,.1-.3s0-.2-.1-.3c0,0-.2-.1-.3-.1h-.7Z" style="fill: #0ba859;"/>
          <path d="M55.9,32.8c-.4,0-.7-.1-.9-.3-.2-.2-.4-.5-.4-.8v-2.2h.6v2.2c0,.2,0,.3,.1,.4,0,.1,.3,.2,.5,.2s.4,0,.5-.2c0-.1,.1-.2,.1-.4v-2.2h.6v2.2c0,.3-.1,.6-.4,.8-.2,.2-.5,.3-.9,.3Z" style="fill: #0ba859;"/>
          <path d="M62.6,32.8c-.5,0-.9-.2-1.2-.5-.3-.3-.5-.7-.5-1.2s.2-.9,.5-1.2c.3-.3,.7-.5,1.2-.5s.6,0,.8,.2c.3,.1,.4,.3,.6,.6l-.6,.3c0-.1-.2-.3-.3-.3-.2,0-.3-.1-.5-.1-.3,0-.6,.1-.8,.3-.2,.2-.3,.5-.3,.8s0,.6,.3,.8c.2,.2,.5,.3,.8,.3s.4,0,.5-.1c.2,0,.3-.2,.3-.3l.6,.3c-.1,.2-.3,.4-.6,.6-.3,.1-.5,.2-.8,.2Z" style="fill: #0ba859;"/>
          <path d="M69.9,29.4v.6h-.9v2.7h-.6v-2.7h-.9v-.6h2.4Z" style="fill: #0ba859;"/>
          <path d="M76.2,32.3c-.3,.3-.7,.5-1.2,.5s-.9-.2-1.2-.5c-.3-.3-.5-.7-.5-1.2s.2-.9,.5-1.2c.3-.3,.7-.5,1.2-.5s.9,.2,1.2,.5c.3,.3,.5,.7,.5,1.2s-.2,.9-.5,1.2Zm-2-.4c.2,.2,.5,.3,.8,.3s.6-.1,.8-.3c.2-.2,.3-.5,.3-.8s-.1-.6-.3-.8c-.2-.2-.5-.3-.8-.3s-.6,.1-.8,.3c-.2,.2-.3,.5-.3,.8s.1,.6,.3,.8Z" style="fill: #0ba859;"/>
          <path d="M82.2,32.7l-.7-1.1h-.5v1.1h-.6v-3.3h1.3c.3,0,.6,.1,.8,.3,.2,.2,.3,.5,.3,.8s0,.4-.2,.6c-.1,.2-.3,.3-.5,.4l.7,1.2h-.7Zm-1.2-2.7v1h.7c.1,0,.2,0,.3-.1,0,0,.1-.2,.1-.3s0-.2-.1-.3c0,0-.2-.1-.3-.1h-.7Z" style="fill: #0ba859;"/>
          <path d="M88.8,32.7l-.2-.6h-1.4l-.2,.6h-.7l1.2-3.3h.8l1.2,3.3h-.7Zm-1.3-1.2h.9l-.5-1.3-.5,1.3Z" style="fill: #0ba859;"/>
        </g>
      </g>
    </g>
  </g>
</svg>