<?xml version="1.0" encoding="UTF-8"?>
<svg id="uuid-140f4738-3af4-4fb2-9239-0d14ef00d8c4" data-name="Layer 2" xmlns="http://www.w3.org/2000/svg" width="160.6" height="194.2" viewBox="0 0 160.6 194.2">
  <g id="uuid-18502048-f6b2-4496-8b8c-49fc01d57f1e" data-name="Capa 1">
    <g>
      <g>
        <g>
          <path d="M41.1,46.7V14.5h13.2c13,0,18.3,4.4,18.3,15.9s-7.6,16.3-21.5,16.3h-10Zm50.4-17C91.4,9.4,77.3,0,57.2,0H22.8V94.5h18.3V60.1h9.2c19,0,41.2-8.3,41.2-30.3Z" style="fill: #2d302f;"/>
          <path d="M97.5,80.7c-6.1-2.2-11.1-5.4-15.5-10.9l-8.1-10c-3.5,2.6-13,4.7-18.4,4.6l9.6,12.7c7.8,10.2,16.8,16.6,27.9,18.6l4.4-14.9Z" style="fill: #2d302f;"/>
        </g>
        <g>
          <rect width="22.7" height="22.7" style="fill: #0ba859;"/>
          <path d="M11.8,17.4c0,0-.1,0-.2,0,0,.1-.2,.2-.3,.2s-.3,0-.3-.2c0,0-.1,0-.2,0-.2,0-.3-.1-.3-.3s0-.1,0-.2c0,0,.2,0,.2,0h1c0,0,.2,0,.2,0,0,0,0,.1,0,.2,0,.2-.1,.3-.3,.3m-1.2-8.2v2h1.4v-2h-1.4Zm-1.1,4.9c.3,.3,.8,.4,1.4,.5v1.5h0c-.2,0-.4,.2-.4,.4,0,.1,0,.2,.1,.3,0,0,.2,.1,.3,.1h.8c.2,0,.4-.2,.4-.4s-.2-.4-.4-.4v-1.5c.6,0,1.1-.2,1.4-.4,.2-.1,.2-.4,0-.5-.1-.2-.4-.2-.5,0-.1,.1-.3,.2-.6,.2v-2.1h-1.4v2.1c-.2,0-.4-.1-.6-.2-.2-.1-.4-.1-.5,0-.1,.2-.1,.4,0,.5Zm2.5-7.5h-1.4v2.2h1.4v-2.2Zm0-.3h-1.4l.7-1,.7,1Z" style="fill: #fff; fill-rule: evenodd;"/>
        </g>
      </g>
      <g>
        <path d="M26.7,130.8h6.6c3.9,0,6.2,2.3,6.2,5.6h0c0,3.8-2.9,5.7-6.6,5.7h-2.7v4.9h-3.6v-16.2Zm6.4,8.2c1.8,0,2.8-1.1,2.8-2.5h0c0-1.6-1.1-2.5-2.9-2.5h-2.8v5h2.8Z" style="fill: #2d302f;"/>
        <path d="M41.3,134.6h3.5v2.5c.7-1.7,1.9-2.8,4-2.7v3.7h-.2c-2.3,0-3.8,1.4-3.8,4.4v4.6h-3.5v-12.4Z" style="fill: #2d302f;"/>
        <path d="M49.6,140.9h0c0-3.6,2.9-6.5,6.7-6.5s6.7,2.9,6.7,6.4h0c0,3.6-2.9,6.5-6.7,6.5s-6.7-2.9-6.7-6.4Zm10,0h0c0-1.9-1.3-3.5-3.3-3.5s-3.2,1.6-3.2,3.4h0c0,1.9,1.3,3.5,3.3,3.5s3.2-1.6,3.2-3.4Z" style="fill: #2d302f;"/>
        <path d="M64.3,149.9l1.2-2.5c.5,.3,1,.5,1.5,.5s.9-.2,1.2-.8l-4.9-12.5h3.7l2.8,8.5,2.7-8.5h3.7l-4.8,12.7c-1,2.5-2,3.5-4.1,3.5s-2.2-.3-3.1-.9Z" style="fill: #2d302f;"/>
        <path d="M76.6,140.9h0c0-3.6,2.5-6.5,6.1-6.5s6,3.2,6,6.7,0,.6,0,.9h-8.6c.3,1.6,1.5,2.4,3,2.4s2-.4,3-1.3l2,1.8c-1.2,1.4-2.8,2.3-5.1,2.3-3.7,0-6.5-2.6-6.5-6.4Zm8.8-1c-.2-1.6-1.1-2.6-2.6-2.6s-2.4,1-2.7,2.6h5.3Z" style="fill: #2d302f;"/>
        <path d="M90.3,140.9h0c0-3.6,2.7-6.5,6.5-6.5s3.8,.8,5,2.1l-2.2,2.3c-.8-.8-1.6-1.4-2.8-1.4s-3,1.6-3,3.4h0c0,1.9,1.2,3.5,3.2,3.5s2-.5,2.9-1.3l2.1,2.1c-1.2,1.3-2.6,2.3-5.1,2.3-3.7,0-6.5-2.9-6.5-6.4Z" style="fill: #2d302f;"/>
        <path d="M104.3,143.5v-5.9h-1.5v-3h1.5v-3.2h3.5v3.2h2.9v3h-2.9v5.3c0,.8,.3,1.2,1.1,1.2s1.2-.2,1.7-.4v2.8c-.7,.4-1.6,.7-2.8,.7-2.2,0-3.6-.9-3.6-3.7Z" style="fill: #2d302f;"/>
        <path d="M111.9,140.9h0c0-3.6,2.9-6.5,6.7-6.5s6.7,2.9,6.7,6.4h0c0,3.6-2.9,6.5-6.7,6.5s-6.7-2.9-6.7-6.4Zm10,0h0c0-1.9-1.3-3.5-3.3-3.5s-3.2,1.6-3.2,3.4h0c0,1.9,1.3,3.5,3.3,3.5s3.2-1.6,3.2-3.4Z" style="fill: #2d302f;"/>
        <path d="M126.5,145.4l1.5-2.3c1.3,1,2.8,1.5,3.9,1.5s1.5-.4,1.5-.9h0c0-.8-1.2-1.1-2.6-1.5-1.7-.5-3.7-1.3-3.7-3.7h0c0-2.6,2-4,4.5-4s3.3,.5,4.6,1.4l-1.3,2.4c-1.2-.7-2.5-1.2-3.4-1.2s-1.3,.4-1.3,.9h0c0,.7,1.2,1.1,2.5,1.5,1.7,.6,3.8,1.4,3.8,3.7h0c0,2.8-2.1,4.1-4.8,4.1s-3.7-.6-5.3-1.9Z" style="fill: #2d302f;"/>
      </g>
      <g>
        <path d="M25.7,164.3h0c0-4.2,2.7-6.5,5.7-6.5s3,.9,3.9,1.9v-6.1h3.5v16.9h-3.5v-1.8c-.9,1.2-2,2-3.9,2-2.9,0-5.7-2.3-5.7-6.4Zm9.6,0h0c0-2.1-1.4-3.5-3-3.5s-3,1.3-3,3.4h0c0,2.1,1.4,3.5,3,3.5s3-1.4,3-3.4Z" style="fill: #2d302f;"/>
        <path d="M40.9,164.4h0c0-3.6,2.5-6.5,6.1-6.5s6,3.2,6,6.7,0,.6,0,.9h-8.6c.3,1.6,1.5,2.4,3,2.4s2-.4,3-1.3l2,1.8c-1.2,1.4-2.8,2.3-5.1,2.3-3.7,0-6.5-2.6-6.5-6.4Zm8.8-1c-.2-1.6-1.1-2.6-2.6-2.6s-2.4,1-2.7,2.6h5.3Z" style="fill: #2d302f;"/>
        <path d="M61.7,158.1h3.5v1.8c.9-1.2,2-2,3.9-2,2.9,0,5.7,2.3,5.7,6.4h0c0,4.2-2.7,6.5-5.7,6.5s-3-.9-3.9-1.9v5.3h-3.5v-16.1Zm9.5,6.2h0c0-2.1-1.4-3.5-3-3.5s-3,1.4-3,3.4h0c0,2.1,1.4,3.5,3,3.5s3-1.3,3-3.4Z" style="fill: #2d302f;"/>
        <path d="M76.9,158.1h3.5v2.5c.7-1.7,1.9-2.8,4-2.7v3.7h-.2c-2.3,0-3.8,1.4-3.8,4.4v4.6h-3.5v-12.4Z" style="fill: #2d302f;"/>
        <path d="M86.2,153.6h3.7v3.1h-3.7v-3.1Zm0,4.5h3.5v12.4h-3.5v-12.4Z" style="fill: #2d302f;"/>
        <path d="M92.7,158.1h3.5v1.8c.8-1,1.9-2,3.6-2,2.7,0,4.2,1.8,4.2,4.6v8h-3.5v-6.9c0-1.7-.8-2.5-2.1-2.5s-2.2,.9-2.2,2.5v6.9h-3.5v-12.4Z" style="fill: #2d302f;"/>
        <path d="M106.1,164.4h0c0-3.6,2.7-6.5,6.5-6.5s3.8,.8,5,2.1l-2.2,2.3c-.8-.8-1.6-1.4-2.8-1.4s-3,1.6-3,3.4h0c0,1.9,1.2,3.5,3.2,3.5s2-.5,2.9-1.3l2.1,2.1c-1.2,1.3-2.6,2.3-5.1,2.3-3.7,0-6.5-2.9-6.5-6.4Z" style="fill: #2d302f;"/>
        <path d="M119.5,153.6h3.7v3.1h-3.7v-3.1Zm0,4.5h3.5v12.4h-3.5v-12.4Z" style="fill: #2d302f;"/>
        <path d="M126,158.1h3.5v1.8c.9-1.2,2-2,3.9-2,2.9,0,5.7,2.3,5.7,6.4h0c0,4.2-2.7,6.5-5.7,6.5s-3-.9-3.9-1.9v5.3h-3.5v-16.1Zm9.5,6.2h0c0-2.1-1.4-3.5-3-3.5s-3,1.4-3,3.4h0c0,2.1,1.4,3.5,3,3.5s3-1.3,3-3.4Z" style="fill: #2d302f;"/>
        <path d="M141.3,153.6h3.7v3.1h-3.7v-3.1Zm0,4.5h3.5v12.4h-3.5v-12.4Z" style="fill: #2d302f;"/>
        <path d="M147.2,164.4h0c0-3.6,2.9-6.5,6.7-6.5s6.7,2.9,6.7,6.4h0c0,3.6-2.9,6.5-6.7,6.5s-6.7-2.9-6.7-6.4Zm10,0h0c0-1.9-1.3-3.5-3.3-3.5s-3.2,1.6-3.2,3.4h0c0,1.9,1.3,3.5,3.3,3.5s3.2-1.6,3.2-3.4Z" style="fill: #2d302f;"/>
      </g>
      <g>
        <path d="M90.5,190.4h0c0-2.8,2.1-4,5-4s2.2,.2,3,.5v-.2c0-1.5-.9-2.3-2.7-2.3s-2.3,.3-3.4,.7l-.9-2.7c1.4-.6,2.7-1,4.8-1s3.3,.5,4.2,1.4,1.3,2.3,1.3,4v7.2h-3.4v-1.3c-.9,1-2,1.6-3.8,1.6s-4.3-1.3-4.3-3.8Zm8.1-.8v-.6c-.6-.3-1.4-.5-2.2-.5-1.5,0-2.4,.6-2.4,1.7h0c0,1,.8,1.6,1.9,1.6,1.6,0,2.8-.9,2.8-2.2Z" style="fill: #2d302f;"/>
        <path d="M111.6,184.6h-1.5v-2.9h1.5v-.8c0-1.4,.3-2.4,1-3,.6-.6,1.6-1,2.9-1s1.9,.1,2.5,.3v2.9c-.5-.2-1-.3-1.6-.3s-1.3,.4-1.3,1.3v.5h2.9v2.9h-2.8v9.4h-3.5v-9.4Z" style="fill: #2d302f;"/>
        <path d="M119.5,177h3.7v3.1h-3.7v-3.1Zm0,4.5h3.5v12.4h-3.5v-12.4Z" style="fill: #2d302f;"/>
        <path d="M125.9,181.5h3.5v1.8c.8-1,1.9-2,3.6-2,2.7,0,4.2,1.8,4.2,4.6v8h-3.5v-6.9c0-1.7-.8-2.5-2.1-2.5s-2.2,.9-2.2,2.5v6.9h-3.5v-12.4Z" style="fill: #2d302f;"/>
        <path d="M139.8,190.3h3.8v3.7h-3.8v-3.7Z" style="fill: #2d302f;"/>
      </g>
      <polyline points="80.5 187.7 26.6 187.7 26.6 189.2 80.5 189.2" style="fill: #2d302f;"/>
    </g>
  </g>
</svg>