<?xml version="1.0" encoding="UTF-8"?>
<svg id="uuid-a03ff5e4-c4cd-4d9b-84f7-b135f1fed274" data-name="Layer 2" xmlns="http://www.w3.org/2000/svg" width="45.8" height="45.8" viewBox="0 0 45.8 45.8">
  <g id="uuid-512341c6-7f85-40dd-b6aa-05eba8be6621" data-name="Capa 1">
    <g>
      <path d="M22.9,45.8c-4,0-7.9-1.1-11.4-3.1l-8.9,3.1,1.8-9.5C1.5,32.4,0,27.8,0,22.9,0,10.3,10.3,0,22.9,0s22.9,10.3,22.9,22.9-10.3,22.9-22.9,22.9Z" style="fill: #0ba659;"/>
      <g>
        <g>
          <path d="M22.9,9.1c-7.7,0-13.9,6.2-13.9,13.9s1.1,6.2,2.9,8.5l-.9,4.8,4.5-1.6c2.1,1.3,4.6,2.1,7.3,2.1,7.7,0,13.9-6.2,13.9-13.9s-6.2-13.9-13.9-13.9Z" style="fill: none;"/>
          <path d="M22.9,37.9c-2.6,0-5.2-.7-7.5-2l-5.8,2,1.2-6.2c-1.9-2.6-2.9-5.6-2.9-8.8,0-8.3,6.7-15,15-15s15,6.7,15,15-6.7,15-15,15Zm-7.2-4.5l.5,.3c2,1.3,4.4,1.9,6.7,1.9,7,0,12.7-5.7,12.7-12.7s-5.7-12.7-12.7-12.7-12.7,5.7-12.7,12.7,.9,5.6,2.7,7.8l.3,.4-.7,3.4,3.2-1.1Z" style="fill: #fff;"/>
        </g>
        <path d="M15.4,17.2s.9-1.5,1.6-1.6c.7,0,1.6,0,1.9,.4,.2,.5,1.4,3.2,1.4,3.2,0,0,.2,.5-.1,.9-.3,.5-1,1.1-1,1.1,0,0-.4,.5,0,1,.4,.5,.9,1.4,2.1,2.6,1.2,1.2,3.4,2,3.4,2,0,0,.3,0,.5-.2,.2-.2,1.3-1.6,1.3-1.6,0,0,.4-.5,.9-.2,.6,.3,3.2,1.5,3.2,1.5,0,0,.3,.1,.3,.6s-.2,1.6-.6,1.9c-.4,.4-1.5,1.5-3.1,1.5s-5.6-1.3-7.7-3.4c-2.1-2.1-3.9-4.2-4.4-6.1-.4-1.9-.4-2.8,.2-3.6Z" style="fill: #fff;"/>
      </g>
    </g>
  </g>
</svg>